<svg xmlns="http://www.w3.org/2000/svg" xmlns:xlink="http://www.w3.org/1999/xlink" width="199" zoomAndPan="magnify" viewBox="0 0 149.25 149.999998" height="200" preserveAspectRatio="xMidYMid meet" version="1.0"><defs><clipPath id="f737fd7c87"><path d="M 0.128906 0.375 L 147.855469 0.375 L 147.855469 149.371094 L 0.128906 149.371094 Z M 0.128906 0.375 " clip-rule="nonzero"/></clipPath><clipPath id="14dada5f38"><path d="M 0.128906 0.375 L 147.855469 0.375 L 147.855469 149.371094 L 0.128906 149.371094 Z M 0.128906 0.375 " clip-rule="nonzero"/></clipPath><clipPath id="b3f4ebc777"><path d="M 0.128906 0.375 L 147.855469 0.375 L 147.855469 149.371094 L 0.128906 149.371094 Z M 0.128906 0.375 " clip-rule="nonzero"/></clipPath><clipPath id="ffc2365f93"><path d="M 0.128906 0.375 L 147.855469 0.375 L 147.855469 149.371094 L 0.128906 149.371094 Z M 0.128906 0.375 " clip-rule="nonzero"/></clipPath></defs><g clip-path="url(#f737fd7c87)"><path fill="#0e1616" d="M 64.757812 1.054688 C 170.882812 -11.023438 177.054688 149.824219 73.449219 149.335938 C -19.425781 148.902344 -25.984375 11.378906 64.757812 1.054688 Z M 62.148438 4.90625 C -0.355469 12.734375 -19.453125 99.652344 33.632812 133.578125 C 89.84375 169.5 162.371094 118.871094 142.632812 54.296875 C 131.578125 18.125 99.132812 0.269531 62.148438 4.90625 Z M 62.148438 4.90625 " fill-opacity="1" fill-rule="nonzero"/></g><path fill="#0e1616" d="M 73.859375 10.082031 C 111.003906 7.882812 142.277344 47.019531 138.707031 82.757812 C 134.441406 125.394531 80.152344 153.398438 43.472656 131.492188 C -15.25 96.429688 6.894531 14.046875 73.859375 10.082031 Z M 68.636719 13.976562 C -20.921875 24.125 4.980469 159.523438 96.085938 131.910156 C 135.539062 119.953125 148.445312 64.5625 120.675781 34.894531 C 106.417969 19.667969 89.933594 11.566406 68.636719 13.976562 Z M 68.636719 13.976562 " fill-opacity="1" fill-rule="nonzero"/><path fill="#0e1616" d="M 66.058594 20.449219 C 87.582031 17.683594 117.289062 30.371094 124.136719 52.113281 C 129.292969 68.480469 131.414062 79.925781 124.722656 95.921875 C 118.8125 110.050781 108.996094 121.421875 93.554688 125.5 C 57.179688 135.105469 27.855469 120.679688 19.160156 83.433594 C 12.585938 55.296875 37.941406 24.0625 66.058594 20.449219 Z M 68.636719 23.035156 C 38.265625 26.375 14.726562 57.019531 23.324219 87.011719 C 25.378906 94.164062 30.96875 107.761719 36.570312 112.542969 C 44.648438 119.441406 64.167969 126.964844 74.734375 126.054688 C 117.902344 122.332031 135.976562 88.480469 119.585938 48.910156 C 112.945312 32.886719 85.273438 21.207031 68.636719 23.035156 Z M 68.636719 23.035156 " fill-opacity="1" fill-rule="nonzero"/><path fill="#0e1616" d="M 68.636719 29.496094 C 127.925781 23.847656 140.339844 114.171875 77.320312 119.59375 C 16.375 124.835938 13.183594 34.777344 68.636719 29.496094 Z M 66.003906 33.320312 C 33.269531 38.488281 22.414062 77.710938 41.226562 102.714844 C 56.429688 122.921875 97.707031 119.917969 110.03125 98.03125 C 128.738281 64.808594 103.257812 27.4375 66.003906 33.320312 Z M 66.003906 33.320312 " fill-opacity="1" fill-rule="nonzero"/><path fill="#0e1616" d="M 68.609375 39.8125 C 116.988281 32.914062 124.636719 105.046875 79.769531 110.417969 C 31.429688 116.199219 22.332031 46.410156 68.609375 39.8125 Z M 69.902344 42.394531 C 26.648438 47.660156 35.074219 112.25 78.472656 107.832031 C 120.230469 103.578125 112.773438 37.167969 69.902344 42.394531 Z M 69.902344 42.394531 " fill-opacity="1" fill-rule="nonzero"/><path fill="#0e1616" d="M 69.886719 48.820312 C 102.589844 43.550781 112.15625 96.253906 77.203125 100.125 C 43.339844 103.871094 37.601562 54.019531 69.886719 48.820312 Z M 67.28125 52.695312 C 61.914062 53.800781 55.960938 59.980469 53.574219 64.839844 C 44.269531 83.800781 62.441406 102.304688 81.847656 95.6875 C 107.421875 86.964844 97.3125 46.503906 67.28125 52.695312 Z M 67.28125 52.695312 " fill-opacity="1" fill-rule="nonzero"/><path fill="#0e1616" d="M 68.574219 59.160156 C 98.761719 52.945312 96.210938 99.472656 67.5625 90.597656 C 53.988281 86.390625 53.597656 62.246094 68.574219 59.160156 Z M 69.84375 61.714844 C 53.734375 65.363281 58.457031 94.441406 79.332031 88.007812 C 92.75 83.875 88.640625 57.453125 69.84375 61.714844 Z M 69.84375 61.714844 " fill-opacity="1" fill-rule="nonzero"/><path fill="#0e1616" d="M 72.464844 65.519531 C 84.238281 63.382812 87.992188 83.324219 74.621094 84.707031 C 62.472656 85.960938 60.714844 67.652344 72.464844 65.519531 Z M 71.128906 69.453125 C 65.675781 71.097656 66.160156 80.882812 73.417969 80.925781 C 84.632812 80.996094 82.320312 66.074219 71.128906 69.453125 Z M 71.128906 69.453125 " fill-opacity="1" fill-rule="nonzero"/><g clip-path="url(#14dada5f38)"><path fill="#0e1616" d="M 64.757812 1.054688 C 170.882812 -11.023438 177.054688 149.824219 73.449219 149.335938 C -19.425781 148.902344 -25.984375 11.378906 64.757812 1.054688 Z M 62.148438 4.90625 C -0.355469 12.734375 -19.453125 99.652344 33.632812 133.578125 C 89.84375 169.5 162.371094 118.871094 142.632812 54.296875 C 131.578125 18.125 99.132812 0.269531 62.148438 4.90625 Z M 62.148438 4.90625 " fill-opacity="1" fill-rule="nonzero"/></g><path fill="#0e1616" d="M 73.859375 10.082031 C 111.003906 7.882812 142.277344 47.019531 138.707031 82.757812 C 134.441406 125.394531 80.152344 153.398438 43.472656 131.492188 C -15.25 96.429688 6.894531 14.046875 73.859375 10.082031 Z M 68.636719 13.976562 C -20.921875 24.125 4.980469 159.523438 96.085938 131.910156 C 135.539062 119.953125 148.445312 64.5625 120.675781 34.894531 C 106.417969 19.667969 89.933594 11.566406 68.636719 13.976562 Z M 68.636719 13.976562 " fill-opacity="1" fill-rule="nonzero"/><path fill="#0e1616" d="M 66.058594 20.449219 C 87.582031 17.683594 117.289062 30.371094 124.136719 52.113281 C 129.292969 68.480469 131.414062 79.925781 124.722656 95.921875 C 118.8125 110.050781 108.996094 121.421875 93.554688 125.5 C 57.179688 135.105469 27.855469 120.679688 19.160156 83.433594 C 12.585938 55.296875 37.941406 24.0625 66.058594 20.449219 Z M 68.636719 23.035156 C 38.265625 26.375 14.726562 57.019531 23.324219 87.011719 C 25.378906 94.164062 30.96875 107.761719 36.570312 112.542969 C 44.648438 119.441406 64.167969 126.964844 74.734375 126.054688 C 117.902344 122.332031 135.976562 88.480469 119.585938 48.910156 C 112.945312 32.886719 85.273438 21.207031 68.636719 23.035156 Z M 68.636719 23.035156 " fill-opacity="1" fill-rule="nonzero"/><path fill="#0e1616" d="M 68.636719 29.496094 C 127.925781 23.847656 140.339844 114.171875 77.320312 119.59375 C 16.375 124.835938 13.183594 34.777344 68.636719 29.496094 Z M 66.003906 33.320312 C 33.269531 38.488281 22.414062 77.710938 41.226562 102.714844 C 56.429688 122.921875 97.707031 119.917969 110.03125 98.03125 C 128.738281 64.808594 103.257812 27.4375 66.003906 33.320312 Z M 66.003906 33.320312 " fill-opacity="1" fill-rule="nonzero"/><path fill="#0e1616" d="M 68.609375 39.8125 C 116.988281 32.914062 124.636719 105.046875 79.769531 110.417969 C 31.429688 116.199219 22.332031 46.410156 68.609375 39.8125 Z M 69.902344 42.394531 C 26.648438 47.660156 35.074219 112.25 78.472656 107.832031 C 120.230469 103.578125 112.773438 37.167969 69.902344 42.394531 Z M 69.902344 42.394531 " fill-opacity="1" fill-rule="nonzero"/><path fill="#0e1616" d="M 69.886719 48.820312 C 102.589844 43.550781 112.15625 96.253906 77.203125 100.125 C 43.339844 103.871094 37.601562 54.019531 69.886719 48.820312 Z M 67.28125 52.695312 C 61.914062 53.800781 55.960938 59.980469 53.574219 64.839844 C 44.269531 83.800781 62.441406 102.304688 81.847656 95.6875 C 107.421875 86.964844 97.3125 46.503906 67.28125 52.695312 Z M 67.28125 52.695312 " fill-opacity="1" fill-rule="nonzero"/><path fill="#0e1616" d="M 68.574219 59.160156 C 98.761719 52.945312 96.210938 99.472656 67.5625 90.597656 C 53.988281 86.390625 53.597656 62.246094 68.574219 59.160156 Z M 69.84375 61.714844 C 53.734375 65.363281 58.457031 94.441406 79.332031 88.007812 C 92.75 83.875 88.640625 57.453125 69.84375 61.714844 Z M 69.84375 61.714844 " fill-opacity="1" fill-rule="nonzero"/><path fill="#0e1616" d="M 72.464844 65.519531 C 84.238281 63.382812 87.992188 83.324219 74.621094 84.707031 C 62.472656 85.960938 60.714844 67.652344 72.464844 65.519531 Z M 71.128906 69.453125 C 65.675781 71.097656 66.160156 80.882812 73.417969 80.925781 C 84.632812 80.996094 82.320312 66.074219 71.128906 69.453125 Z M 71.128906 69.453125 " fill-opacity="1" fill-rule="nonzero"/><g clip-path="url(#b3f4ebc777)"><path fill="#0e1616" d="M 64.757812 1.054688 C 170.882812 -11.023438 177.054688 149.824219 73.449219 149.335938 C -19.425781 148.902344 -25.984375 11.378906 64.757812 1.054688 Z M 62.148438 4.90625 C -0.355469 12.734375 -19.453125 99.652344 33.632812 133.578125 C 89.84375 169.5 162.371094 118.871094 142.632812 54.296875 C 131.578125 18.125 99.132812 0.269531 62.148438 4.90625 Z M 62.148438 4.90625 " fill-opacity="1" fill-rule="nonzero"/></g><path fill="#0e1616" d="M 73.859375 10.082031 C 111.003906 7.882812 142.277344 47.019531 138.707031 82.757812 C 134.441406 125.394531 80.152344 153.398438 43.472656 131.492188 C -15.25 96.429688 6.894531 14.046875 73.859375 10.082031 Z M 68.636719 13.976562 C -20.921875 24.125 4.980469 159.523438 96.085938 131.910156 C 135.539062 119.953125 148.445312 64.5625 120.675781 34.894531 C 106.417969 19.667969 89.933594 11.566406 68.636719 13.976562 Z M 68.636719 13.976562 " fill-opacity="1" fill-rule="nonzero"/><path fill="#0e1616" d="M 66.058594 20.449219 C 87.582031 17.683594 117.289062 30.371094 124.136719 52.113281 C 129.292969 68.480469 131.414062 79.925781 124.722656 95.921875 C 118.8125 110.050781 108.996094 121.421875 93.554688 125.5 C 57.179688 135.105469 27.855469 120.679688 19.160156 83.433594 C 12.585938 55.296875 37.941406 24.0625 66.058594 20.449219 Z M 68.636719 23.035156 C 38.265625 26.375 14.726562 57.019531 23.324219 87.011719 C 25.378906 94.164062 30.96875 107.761719 36.570312 112.542969 C 44.648438 119.441406 64.167969 126.964844 74.734375 126.054688 C 117.902344 122.332031 135.976562 88.480469 119.585938 48.910156 C 112.945312 32.886719 85.273438 21.207031 68.636719 23.035156 Z M 68.636719 23.035156 " fill-opacity="1" fill-rule="nonzero"/><path fill="#0e1616" d="M 68.636719 29.496094 C 127.925781 23.847656 140.339844 114.171875 77.320312 119.59375 C 16.375 124.835938 13.183594 34.777344 68.636719 29.496094 Z M 66.003906 33.320312 C 33.269531 38.488281 22.414062 77.710938 41.226562 102.714844 C 56.429688 122.921875 97.707031 119.917969 110.03125 98.03125 C 128.738281 64.808594 103.257812 27.4375 66.003906 33.320312 Z M 66.003906 33.320312 " fill-opacity="1" fill-rule="nonzero"/><path fill="#0e1616" d="M 68.609375 39.8125 C 116.988281 32.914062 124.636719 105.046875 79.769531 110.417969 C 31.429688 116.199219 22.332031 46.410156 68.609375 39.8125 Z M 69.902344 42.394531 C 26.648438 47.660156 35.074219 112.25 78.472656 107.832031 C 120.230469 103.578125 112.773438 37.167969 69.902344 42.394531 Z M 69.902344 42.394531 " fill-opacity="1" fill-rule="nonzero"/><path fill="#0e1616" d="M 69.886719 48.820312 C 102.589844 43.550781 112.15625 96.253906 77.203125 100.125 C 43.339844 103.871094 37.601562 54.019531 69.886719 48.820312 Z M 67.28125 52.695312 C 61.914062 53.800781 55.960938 59.980469 53.574219 64.839844 C 44.269531 83.800781 62.441406 102.304688 81.847656 95.6875 C 107.421875 86.964844 97.3125 46.503906 67.28125 52.695312 Z M 67.28125 52.695312 " fill-opacity="1" fill-rule="nonzero"/><path fill="#0e1616" d="M 68.574219 59.160156 C 98.761719 52.945312 96.210938 99.472656 67.5625 90.597656 C 53.988281 86.390625 53.597656 62.246094 68.574219 59.160156 Z M 69.84375 61.714844 C 53.734375 65.363281 58.457031 94.441406 79.332031 88.007812 C 92.75 83.875 88.640625 57.453125 69.84375 61.714844 Z M 69.84375 61.714844 " fill-opacity="1" fill-rule="nonzero"/><path fill="#0e1616" d="M 72.464844 65.519531 C 84.238281 63.382812 87.992188 83.324219 74.621094 84.707031 C 62.472656 85.960938 60.714844 67.652344 72.464844 65.519531 Z M 71.128906 69.453125 C 65.675781 71.097656 66.160156 80.882812 73.417969 80.925781 C 84.632812 80.996094 82.320312 66.074219 71.128906 69.453125 Z M 71.128906 69.453125 " fill-opacity="1" fill-rule="nonzero"/><g clip-path="url(#ffc2365f93)"><path fill="#0e1616" d="M 64.757812 1.054688 C 170.882812 -11.023438 177.054688 149.824219 73.449219 149.335938 C -19.425781 148.902344 -25.984375 11.378906 64.757812 1.054688 Z M 62.148438 4.90625 C -0.355469 12.734375 -19.453125 99.652344 33.632812 133.578125 C 89.84375 169.5 162.371094 118.871094 142.632812 54.296875 C 131.578125 18.125 99.132812 0.269531 62.148438 4.90625 Z M 62.148438 4.90625 " fill-opacity="1" fill-rule="nonzero"/></g><path fill="#0e1616" d="M 73.859375 10.082031 C 111.003906 7.882812 142.277344 47.019531 138.707031 82.757812 C 134.441406 125.394531 80.152344 153.398438 43.472656 131.492188 C -15.25 96.429688 6.894531 14.046875 73.859375 10.082031 Z M 68.636719 13.976562 C -20.921875 24.125 4.980469 159.523438 96.085938 131.910156 C 135.539062 119.953125 148.445312 64.5625 120.675781 34.894531 C 106.417969 19.667969 89.933594 11.566406 68.636719 13.976562 Z M 68.636719 13.976562 " fill-opacity="1" fill-rule="nonzero"/><path fill="#0e1616" d="M 66.058594 20.449219 C 87.582031 17.683594 117.289062 30.371094 124.136719 52.113281 C 129.292969 68.480469 131.414062 79.925781 124.722656 95.921875 C 118.8125 110.050781 108.996094 121.421875 93.554688 125.5 C 57.179688 135.105469 27.855469 120.679688 19.160156 83.433594 C 12.585938 55.296875 37.941406 24.0625 66.058594 20.449219 Z M 68.636719 23.035156 C 38.265625 26.375 14.726562 57.019531 23.324219 87.011719 C 25.378906 94.164062 30.96875 107.761719 36.570312 112.542969 C 44.648438 119.441406 64.167969 126.964844 74.734375 126.054688 C 117.902344 122.332031 135.976562 88.480469 119.585938 48.910156 C 112.945312 32.886719 85.273438 21.207031 68.636719 23.035156 Z M 68.636719 23.035156 " fill-opacity="1" fill-rule="nonzero"/><path fill="#0e1616" d="M 68.636719 29.496094 C 127.925781 23.847656 140.339844 114.171875 77.320312 119.59375 C 16.375 124.835938 13.183594 34.777344 68.636719 29.496094 Z M 66.003906 33.320312 C 33.269531 38.488281 22.414062 77.710938 41.226562 102.714844 C 56.429688 122.921875 97.707031 119.917969 110.03125 98.03125 C 128.738281 64.808594 103.257812 27.4375 66.003906 33.320312 Z M 66.003906 33.320312 " fill-opacity="1" fill-rule="nonzero"/><path fill="#0e1616" d="M 68.609375 39.8125 C 116.988281 32.914062 124.636719 105.046875 79.769531 110.417969 C 31.429688 116.199219 22.332031 46.410156 68.609375 39.8125 Z M 69.902344 42.394531 C 26.648438 47.660156 35.074219 112.25 78.472656 107.832031 C 120.230469 103.578125 112.773438 37.167969 69.902344 42.394531 Z M 69.902344 42.394531 " fill-opacity="1" fill-rule="nonzero"/><path fill="#0e1616" d="M 69.886719 48.820312 C 102.589844 43.550781 112.15625 96.253906 77.203125 100.125 C 43.339844 103.871094 37.601562 54.019531 69.886719 48.820312 Z M 67.28125 52.695312 C 61.914062 53.800781 55.960938 59.980469 53.574219 64.839844 C 44.269531 83.800781 62.441406 102.304688 81.847656 95.6875 C 107.421875 86.964844 97.3125 46.503906 67.28125 52.695312 Z M 67.28125 52.695312 " fill-opacity="1" fill-rule="nonzero"/><path fill="#0e1616" d="M 68.574219 59.160156 C 98.761719 52.945312 96.210938 99.472656 67.5625 90.597656 C 53.988281 86.390625 53.597656 62.246094 68.574219 59.160156 Z M 69.84375 61.714844 C 53.734375 65.363281 58.457031 94.441406 79.332031 88.007812 C 92.75 83.875 88.640625 57.453125 69.84375 61.714844 Z M 69.84375 61.714844 " fill-opacity="1" fill-rule="nonzero"/><path fill="#0e1616" d="M 72.464844 65.519531 C 84.238281 63.382812 87.992188 83.324219 74.621094 84.707031 C 62.472656 85.960938 60.714844 67.652344 72.464844 65.519531 Z M 71.128906 69.453125 C 65.675781 71.097656 66.160156 80.882812 73.417969 80.925781 C 84.632812 80.996094 82.320312 66.074219 71.128906 69.453125 Z M 71.128906 69.453125 " fill-opacity="1" fill-rule="nonzero"/></svg>